<svg xmlns="http://www.w3.org/2000/svg" version="1.1" xmlns:xlink="http://www.w3.org/1999/xlink" xmlns:svgjs="http://svgjs.dev/svgjs" width="110" height="135"><svg xmlns="http://www.w3.org/2000/svg" version="1.1" viewBox="-5.0 -10.0 110.0 135.0">
 <g>
  <path d="m56.301 50c0-3.5-2.8008-6.3008-6.3008-6.3008s-6.3008 2.8984-6.3008 6.3008c0 3.5 2.8008 6.3984 6.3008 6.3984s6.3008-2.8984 6.3008-6.3984z"></path>
  <path d="m37.602 44.898 4.8984 1.6016c0.30078-0.60156 0.69922-1.1992 1.1016-1.6992-1.8008-1.6016-4.1016-2.8984-5.3008-3.1992-1.6016-0.5-5.3984 0.80078-8.1016 2 1.3984 2.5 3.8008 5.8984 5.3008 6.3984 1.1992 0.39844 3.8008 0.69922 6.1992 0.5v-0.39844c0-0.5 0.10156-1.1016 0.10156-1.6016l-4.8008-1.6016c-0.5-0.19922-0.80078-0.80078-0.69922-1.3008 0.19922-0.59766 0.69922-0.89844 1.3008-0.69922z"></path>
  <path d="m53 42.199c0.89844-2.1992 1.3984-4.6992 1.3984-6 0-1.6016-2.3984-4.8984-4.3984-7.1016-2 2.1992-4.3984 5.3984-4.3984 7.1016 0 1.3008 0.5 3.8008 1.3984 6 0.60156-0.19922 1.3008-0.39844 2-0.5v-5.1016c0-0.60156 0.5-1 1-1 0.60156 0 1 0.5 1 1v5.1016c0.69922 0.10156 1.3984 0.30078 2 0.5z"></path>
  <path d="m69.898 43.5c-2.6016-1.1992-6.5-2.5-8.1016-2-1.1992 0.39844-3.5 1.6992-5.3008 3.1992 0.39844 0.5 0.80078 1.1016 1.1016 1.6992l4.8984-1.6016c0.5-0.19922 1.1016 0.10156 1.3008 0.69922 0.19922 0.5-0.10156 1.1016-0.69922 1.3008l-4.8008 1.6016c0.10156 0.5 0.19922 1 0.19922 1.6016v0.39844c2.3984 0.19922 5-0.10156 6.1992-0.5 1.4062-0.5 3.8047-3.7969 5.2031-6.3984z"></path>
  <path d="m62.301 66.898c0.30078-2.8984 0.39844-7-0.60156-8.3008-0.80078-1-2.6992-2.8008-4.6992-4-0.39844 0.60156-0.80078 1.1016-1.3008 1.5l3 4.1016c0.30078 0.5 0.19922 1.1016-0.19922 1.3984-0.19922 0.10156-0.39844 0.19922-0.60156 0.19922-0.30078 0-0.60156-0.10156-0.80078-0.39844l-3-4.1016c-0.60156 0.30078-1.1992 0.60156-1.8008 0.80078 0.60156 2.3008 1.6016 4.6992 2.3984 5.6992 0.80469 1.3047 4.8047 2.5039 7.6055 3.1016z"></path>
  <path d="m38.301 58.602c-1 1.3008-0.89844 5.3984-0.60156 8.3008 2.8008-0.60156 6.8008-1.8008 7.6992-3.1016 0.80078-1 1.8008-3.3984 2.3984-5.6992-0.69922-0.19922-1.3008-0.39844-1.8984-0.80078l-3 4.1016c-0.19922 0.30078-0.5 0.39844-0.80078 0.39844-0.19922 0-0.39844-0.10156-0.60156-0.19922-0.5-0.30078-0.60156-1-0.19922-1.3984l3-4.1016c-0.5-0.5-0.89844-1-1.3008-1.5-1.9961 1.2969-3.9961 3-4.6953 4z"></path>
  <path d="m29.602 56.602c-0.60156 0-1.3008 0.10156-1.8984 0.10156-5.1992 0-9.8984-1.6016-13.102-4.6992l-0.30078-0.30078c-1.5 2.1016-3.8008 6.1992-2.3984 10.699 1.3984 4.5 5.8008 6.6016 8.1992 7.3984 0-0.19922 0-0.30078 0.10156-0.5 0.89844-5.1016 4.3984-9.5 9.3984-12.699z"></path>
  <path d="m48.699 61.898c-0.60156 1.3008-1.1992 2.3984-1.6016 3.1016-2 2.6992-9.3008 4-10.102 4.1016h-0.19922c-0.19922 0-0.39844-0.10156-0.60156-0.19922-0.19922-0.19922-0.39844-0.39844-0.39844-0.69922-0.10156-0.80078-1.1016-8.1992 0.80078-10.898 0.5-0.69922 1.3984-1.6016 2.5-2.5-9 2.1992-15.602 7.8984-16.801 14.699-0.60156 3.1992-0.30078 9.6016 4.3008 12.801 4.5 3.1992 10.5 1.5 13.398 0 6.0039-3.1055 9.4023-11.203 8.7031-20.406z"></path>
  <path d="m50 71.398c-1.3984 5.8008-4.6016 10.5-9 12.801-0.10156 0.10156-0.30078 0.10156-0.39844 0.19922 1.5 2 4.6992 5.5 9.3984 5.6016 4.6992 0 8.1016-3.5 9.6016-5.6016-0.10156-0.10156-0.30078-0.10156-0.5-0.19922-4.5-2.3984-7.7031-7-9.1016-12.801z"></path>
  <path d="m60.898 54.898c1.1016 0.89844 2 1.8008 2.5 2.5 2 2.6992 0.89844 10.102 0.80078 10.898 0 0.30078-0.19922 0.5-0.39844 0.69922-0.19922 0.10156-0.39844 0.19922-0.60156 0.19922h-0.19922c-0.80078-0.10156-8.1016-1.3984-10.102-4.1016-0.5-0.69922-1.1016-1.8008-1.6016-3.1016-0.69922 9.1992 2.6992 17.301 8.8008 20.5 2.8984 1.5 9 3.1992 13.5-0.10156s4.6992-9.6016 4.1992-12.801c-1.2969-6.7891-7.9961-12.488-16.898-14.691z"></path>
  <path d="m85.301 52c-3.1992 3.1992-7.8984 4.6992-13.102 4.6992-0.60156 0-1.1992 0-1.8984-0.10156 5 3.1016 8.5 7.6016 9.3984 12.602 0 0.10156 0 0.30078 0.10156 0.5 2.3984-0.80078 6.6992-2.8008 8.1992-7.3008s-0.89844-8.8008-2.3008-10.801c-0.097657 0.10156-0.19922 0.20312-0.39844 0.40234z"></path>
  <path d="m58 41.102c1.1992-0.69922 2.3984-1.3008 3.1992-1.6016 3.1992-1 9.8008 2.1992 10.602 2.6016 0.19922 0.10156 0.39844 0.30078 0.5 0.60156 0.10156 0.30078 0.10156 0.60156-0.10156 0.80078-0.39844 0.80078-3.8984 7.3008-7.1016 8.3008-0.80078 0.30078-2.1016 0.5-3.5 0.60156 8.6016 3.5 17.301 2.8008 22.301-2 2.3008-2.3008 5.8984-7.6016 4.1016-12.898-1.6992-5.3008-7.6016-7.3984-10.898-7.8984-6.8008-0.91016-14.203 3.6914-19.102 11.492z"></path>
  <path d="m77.398 27.699c0.19922 0 0.30078 0.10156 0.5 0.10156 0-2.5-0.60156-7.3008-4.3984-10.102-3.8008-2.8008-8.6016-1.8984-11-1.1016 0.10156 0.10156 0.19922 0.30078 0.19922 0.39844 2.1992 4.6016 2.1016 10.199-0.19922 15.699 4.6016-3.7969 9.8984-5.6953 14.898-4.9961z"></path>
  <path d="m50 10s-0.10156 0 0 0c-5.6016 0-9.5 5-10.898 7.8984-3 6.1992-0.89844 14.699 5 21.699-0.30078-1.3984-0.5-2.6016-0.5-3.5 0-3.3008 5.1992-8.6992 5.6992-9.3008 0.39844-0.39844 1.1016-0.39844 1.5 0 0.60156 0.60156 5.6992 6 5.6992 9.3008 0 0.89844-0.19922 2.1016-0.5 3.5 6-7.1016 8-15.602 5-21.801-1.5-2.7969-5.3984-7.7969-11-7.7969z"></path>
  <path d="m37.5 16.5c-2.3984-0.80078-7.1016-1.6992-10.898 1-3.8984 2.8008-4.5 7.6016-4.5 10.199 0.10156 0 0.30078-0.10156 0.5-0.10156 5.1016-0.69922 10.398 1.1992 14.898 5.1016-2.3008-5.5-2.5-11.098-0.30078-15.699 0.10156-0.19922 0.19922-0.30078 0.30078-0.5z"></path>
  <path d="m11.898 37.699c-1.6992 5.3008 1.8008 10.5 4.1992 12.801 5 4.8008 13.699 5.3984 22.199 2-1.3984-0.10156-2.6992-0.30078-3.5-0.60156-3.1992-1-6.6992-7.6016-7.1016-8.3008-0.10156-0.19922-0.19922-0.5-0.10156-0.80078 0.10156-0.30078 0.30078-0.5 0.5-0.60156 0.80078-0.39844 7.3984-3.6016 10.602-2.6016 0.80078 0.30078 2 0.80078 3.1992 1.6016-4.8984-7.8984-12.301-12.398-19.199-11.5-3.0938 0.40625-9.0938 2.7031-10.797 8.0039z"></path>
 </g>
<text x="0.0" y="117.5" font-size="5.0" font-weight="bold" font-family="Arbeit Regular, Helvetica, Arial-Unicode, Arial, Sans-serif" fill="#000000" svgjs:data="{&quot;leading&quot;:&quot;1.3&quot;}">Created by NAPISAH</text><text x="0.0" y="122.5" font-size="5.0" font-weight="bold" font-family="Arbeit Regular, Helvetica, Arial-Unicode, Arial, Sans-serif" fill="#000000" svgjs:data="{&quot;leading&quot;:&quot;1.3&quot;}">from Noun Project</text></svg><style>@media (prefers-color-scheme: light) { :root { filter: none; } }
@media (prefers-color-scheme: dark) { :root { filter: none; } }
</style></svg>